<?xml version="1.0" encoding="utf-8"?>
<!-- Generator: Adobe Illustrator 24.3.0, SVG Export Plug-In . SVG Version: 6.00 Build 0)  -->
<svg version="1.1" id="Layer_1" xmlns="http://www.w3.org/2000/svg" xmlns:xlink="http://www.w3.org/1999/xlink" x="0px" y="0px"
	 viewBox="0 0 300 300" enable-background="new 0 0 300 300" xml:space="preserve">
<g>
	<g>
		<g>
			<path fill="#7FD3B9" d="M209.181,88.13V61.23c0,0,0-26.901,16.14-37.661c0,0-53.801,10.76-96.842,0c0,0,16.14,16.14,16.14,37.661
				V88.13c-38.26,19.083-64.561,71.783-64.561,112.982c0,51.997,41.874,75.321,96.842,75.321
				c54.973,0,102.222-23.325,102.222-75.321C279.123,159.706,249.148,106.99,209.181,88.13z"/>
		</g>
		<g>
			<path fill="#BBEAD9" d="M96.199,201.113c0-41.199,26.302-93.9,64.561-112.982V61.23c0-15.67-8.538-28.453-13.192-34.264
				c-6.457-0.754-12.883-1.847-19.088-3.396c0,0,16.14,16.14,16.14,37.661V88.13c-38.26,19.083-64.561,71.783-64.561,112.982
				c0,51.997,41.874,75.321,96.842,75.321c2.727,0,5.412-0.102,8.096-0.218C134.054,274.007,96.199,250.532,96.199,201.113z"/>
		</g>
		<g>
			<path fill="#FFDA88" d="M209.465,185.773c-2.259-4.014-5.07-7.153-8.432-9.421c-3.363-2.259-8.307-4.797-14.869-7.589
				c-8.958-3.612-13.429-7.889-13.429-12.817c0-2.499,0.857-4.647,2.585-6.452c1.739-1.797,3.793-2.704,6.178-2.704
				c3.105,0,8.201,2.089,15.268,6.252l10.498-15.909c-6.21-5.398-8.843-8.682-19.603-9.651v-7.151c0-3.71-7.035-6.72-10.76-6.72
				c-3.715,0-10.76,3.011-10.76,6.72v8.254c0,0-4.729,2.325-9.804,7.597c-5.574,5.764-6.336,12.988-6.336,21.888
				c0,4.014,0.673,8.296,3.473,11.992c2.569,3.389,5.937,6.513,8.585,8.511c2.643,2.007,6.988,4.359,12.263,6.628
				c10.771,4.623,15.788,8.262,15.788,13.487c0,2.535-1.145,4.96-3.541,7.274c-2.391,2.301-4.855,3.273-7.456,3.462
				c-7.292,0.518-11.354-2.958-19.745-9.147l-12.289,14.144c7.687,9.116,19.062,13.232,19.062,13.435v6.72
				c0,3.717,7.046,6.722,10.76,6.722c3.725,0,10.76-3.005,10.76-6.722v-6.72c0-0.11,8.606-1.258,14.932-6.72
				c6.226-5.391,10.523-13.721,10.523-22.322C213.116,194.141,211.729,189.796,209.465,185.773z"/>
		</g>
		<g>
			<rect x="144.62" y="66.61" fill="#FFDA88" width="64.561" height="21.52"/>
		</g>
		<g>
			<path fill="#FFDA88" d="M74.679,226.495c0,3.809-3.089,6.898-6.898,6.898H27.776c-3.809,0-6.898-3.089-6.898-6.898v-7.724
				c0-3.809,3.089-6.898,6.898-6.898H67.78c3.809,0,6.898,3.089,6.898,6.898V226.495z"/>
		</g>
		<g>
			<path fill="#FFE2A9" d="M31.638,226.495v-7.724c0-3.809,3.089-6.898,6.898-6.898h-10.76c-3.809,0-6.898,3.089-6.898,6.898v7.724
				c0,3.809,3.089,6.898,6.898,6.898h10.76C34.727,233.393,31.638,230.304,31.638,226.495z"/>
		</g>
		<g>
			<path fill="#FFE2A9" d="M31.638,226.495v-7.724c0-3.809,3.089-6.898,6.898-6.898h-10.76c-3.809,0-6.898,3.089-6.898,6.898v7.724
				c0,3.809,3.089,6.898,6.898,6.898h10.76C34.727,233.393,31.638,230.304,31.638,226.495z"/>
		</g>
		<g>
			<circle fill="#FFDA88" cx="50.542" cy="190.352" r="21.52"/>
		</g>
		<g>
			<path fill="#FFE2A9" d="M39.782,190.352c0-10.014,6.872-18.357,16.14-20.759c-1.729-0.447-3.51-0.762-5.38-0.762
				c-11.89,0-21.52,9.636-21.52,21.52c0,11.882,9.625,21.52,21.52,21.52c1.87,0,3.652-0.315,5.38-0.762
				C46.654,208.71,39.782,200.366,39.782,190.352z"/>
		</g>
		<g>
			<path fill="#7FD3B9" d="M58.711,194.871c0-1.802-0.525-3.205-1.571-4.219c-1.051-1.014-2.48-1.844-4.298-2.49
				c-1.818-0.652-2.937-1.13-3.363-1.44c-0.42-0.31-0.631-0.809-0.631-1.492c0-0.426,0.184-0.788,0.547-1.083
				c0.367-0.294,0.798-0.436,1.308-0.436c1.03,0,2.139,0.62,3.326,1.865l4.114-2.606c-1.55-1.65-3.226-2.679-5.039-3.12
				c0.011-0.089,0.053-0.168,0.053-0.258c0-0.699-0.273-1.398-0.809-1.939c-1.019-0.966-2.69-1.019-3.82,0.053
				c-0.483,0.488-0.751,1.187-0.751,1.886c0,0.152,0.063,0.3,0.089,0.452c-0.94,0.294-1.781,0.736-2.501,1.324
				c-1.461,1.182-2.191,2.711-2.191,4.571c0,3.095,2.038,5.327,6.105,6.699c1.041,0.347,1.608,0.578,1.702,0.693
				c0.231,0,0.599,0.147,1.082,0.452c0.494,0.304,0.736,0.746,0.736,1.334c0,0.457-0.21,0.867-0.641,1.225
				c-0.421,0.357-0.904,0.536-1.44,0.536c-1.182,0-2.323-0.982-3.425-2.963l-4.897,2.301c1.04,1.787,2.306,3.111,3.793,3.977
				c0.541,0.315,1.083,0.51,1.629,0.709c-0.01,0.068-0.042,0.137-0.042,0.21c0,0.699,0.268,1.398,0.809,1.934
				c0.483,0.488,1.177,0.757,1.881,0.757c0.699,0,1.398-0.268,1.881-0.809c0.536-0.483,0.809-1.182,0.809-1.881
				c0-0.005,0-0.011,0-0.016c1.161-0.31,2.249-0.778,3.189-1.555C57.923,198.244,58.711,196.684,58.711,194.871z"/>
		</g>
		<g>
			<rect x="53.158" y="211.873" fill="#FFC67B" width="5.38" height="21.521"/>
		</g>
		<g>
			<rect x="37.018" y="211.873" fill="#FFC67B" width="5.38" height="21.521"/>
		</g>
		<g>
			<path fill="#FFDA88" d="M80.059,248.015c0,3.809-3.089,6.898-6.898,6.898H33.156c-3.809,0-6.898-3.089-6.898-6.898v-7.724
				c0-3.809,3.089-6.898,6.898-6.898H73.16c3.809,0,6.898,3.089,6.898,6.898V248.015z"/>
		</g>
		<g>
			<path fill="#FFE2A9" d="M37.018,248.015v-7.724c0-3.809,3.089-6.898,6.898-6.898h-10.76c-3.809,0-6.898,3.089-6.898,6.898v7.724
				c0,3.809,3.089,6.898,6.898,6.898h10.76C40.107,254.914,37.018,251.824,37.018,248.015z"/>
		</g>
		<g>
			<path fill="#FFE2A9" d="M37.018,248.015v-7.724c0-3.809,3.089-6.898,6.898-6.898h-10.76c-3.809,0-6.898,3.089-6.898,6.898v7.724
				c0,3.809,3.089,6.898,6.898,6.898h10.76C40.107,254.914,37.018,251.824,37.018,248.015z"/>
		</g>
		<g>
			<rect x="58.538" y="228.013" fill="#FFC67B" width="5.38" height="21.521"/>
		</g>
		<g>
			<rect x="42.398" y="233.393" fill="#FFC67B" width="5.38" height="21.52"/>
		</g>
		<g>
			<path fill="#FFDA88" d="M74.679,269.536c0,3.809-3.089,6.898-6.898,6.898H27.776c-3.809,0-6.898-3.089-6.898-6.898v-7.724
				c0-3.809,3.089-6.898,6.898-6.898H67.78c3.809,0,6.898,3.089,6.898,6.898V269.536z"/>
		</g>
		<g>
			<path fill="#FFE2A9" d="M31.638,269.536v-7.724c0-3.809,3.089-6.898,6.898-6.898h-10.76c-3.809,0-6.898,3.089-6.898,6.898v7.724
				c0,3.809,3.089,6.898,6.898,6.898h10.76C34.727,276.434,31.638,273.345,31.638,269.536z"/>
		</g>
		<g>
			<path fill="#FFE2A9" d="M31.638,269.536v-7.724c0-3.809,3.089-6.898,6.898-6.898h-10.76c-3.809,0-6.898,3.089-6.898,6.898v7.724
				c0,3.809,3.089,6.898,6.898,6.898h10.76C34.727,276.434,31.638,273.345,31.638,269.536z"/>
		</g>
		<g>
			<rect x="53.158" y="254.914" fill="#FFC67B" width="5.38" height="21.52"/>
		</g>
		<g>
			<rect x="37.018" y="254.914" fill="#FFC67B" width="5.38" height="21.52"/>
		</g>
		<g>
			<rect x="144.62" y="66.61" fill="#FFE2A9" width="16.14" height="21.52"/>
		</g>
	</g>
	<g>
		<g>
			<path fill="#161616" d="M209.465,185.773c-2.259-4.014-5.07-7.153-8.432-9.421c-3.363-2.259-8.307-4.797-14.869-7.589
				c-8.958-3.612-13.429-7.889-13.429-12.817c0-2.499,0.857-4.647,2.585-6.452c1.739-1.797,3.793-2.704,6.178-2.704
				c3.105,0,8.201,2.089,15.268,6.252l10.498-15.909c-6.21-5.398-8.843-8.682-19.603-9.651v-7.151c0-3.71-7.035-6.72-10.76-6.72
				c-3.715,0-10.76,3.011-10.76,6.72v8.254c0,0-4.729,2.325-9.804,7.597c-5.574,5.764-6.336,12.988-6.336,21.888
				c0,4.014,0.673,8.296,3.473,11.992c2.569,3.389,5.937,6.513,8.585,8.511c2.643,2.007,6.988,4.359,12.263,6.628
				c10.771,4.623,15.788,8.262,15.788,13.487c0,2.535-1.145,4.96-3.541,7.274c-2.391,2.301-4.855,3.273-7.456,3.462
				c-7.292,0.518-11.354-2.958-19.745-9.147l-12.289,14.144c7.687,9.116,19.062,13.232,19.062,13.435v6.72
				c0,3.717,7.046,6.722,10.76,6.722c3.725,0,10.76-3.005,10.76-6.722v-6.72c0-0.11,8.606-1.258,14.932-6.72
				c6.226-5.391,10.523-13.721,10.523-22.322C213.116,194.141,211.729,189.796,209.465,185.773z"/>
		</g>
		<g>
			<path fill="#161616" d="M209.181,93.51H144.62c-2.974,0-5.38-2.409-5.38-5.38V66.61c0-2.971,2.406-5.38,5.38-5.38h64.561
				c2.974,0,5.38,2.409,5.38,5.38v21.52C214.561,91.102,212.155,93.51,209.181,93.51z M150,82.75h53.801V71.99H150V82.75z"/>
		</g>
		<g>
			<path fill="#161616" d="M50.539,217.253c-14.832,0-26.901-12.068-26.901-26.9c0-14.832,12.068-26.901,26.901-26.901
				c14.832,0,26.9,12.068,26.9,26.901C77.439,205.185,65.371,217.253,50.539,217.253z M50.539,174.212
				c-8.9,0-16.14,7.24-16.14,16.14s7.24,16.14,16.14,16.14s16.14-7.24,16.14-16.14S59.439,174.212,50.539,174.212z"/>
		</g>
		<g>
			<path fill="#161616" d="M58.711,194.871c0-1.802-0.525-3.205-1.571-4.219c-1.051-1.014-2.482-1.844-4.3-2.49
				c-1.815-0.652-2.934-1.13-3.357-1.44c-0.42-0.31-0.631-0.809-0.631-1.492c0-0.426,0.181-0.788,0.547-1.083
				c0.365-0.294,0.798-0.436,1.305-0.436c1.03,0,2.139,0.62,3.326,1.865l4.114-2.606c-1.547-1.65-3.226-2.679-5.036-3.12
				c0.008-0.089,0.05-0.168,0.05-0.258c0-0.699-0.271-1.398-0.809-1.939c-1.022-0.966-2.69-1.019-3.82,0.053
				c-0.483,0.488-0.751,1.187-0.751,1.886c0,0.152,0.063,0.3,0.089,0.452c-0.943,0.294-1.779,0.736-2.501,1.324
				c-1.461,1.182-2.189,2.711-2.189,4.571c0,3.095,2.033,5.327,6.1,6.699c1.041,0.347,1.608,0.578,1.702,0.693
				c0.237,0,0.599,0.147,1.088,0.452c0.489,0.304,0.733,0.746,0.733,1.334c0,0.457-0.213,0.867-0.639,1.225
				c-0.426,0.357-0.906,0.536-1.442,0.536c-1.182,0-2.325-0.982-3.428-2.963l-4.894,2.301c1.04,1.787,2.306,3.111,3.793,3.977
				c0.541,0.315,1.085,0.51,1.626,0.709c-0.005,0.068-0.039,0.137-0.039,0.21c0,0.699,0.268,1.398,0.806,1.934
				c0.483,0.488,1.182,0.757,1.884,0.757c0.699,0,1.398-0.268,1.881-0.809c0.539-0.483,0.809-1.182,0.809-1.881
				c0-0.005-0.003-0.011-0.003-0.016c1.164-0.31,2.252-0.778,3.192-1.555C57.923,198.244,58.711,196.684,58.711,194.871z"/>
		</g>
		<g>
			<path fill="#161616" d="M67.78,238.773H27.776c-6.77,0-12.279-5.509-12.279-12.279v-7.723c0-6.77,5.509-12.279,12.279-12.279
				H67.78c6.77,0,12.279,5.509,12.279,12.279v7.723C80.059,233.265,74.55,238.773,67.78,238.773z M27.776,217.253
				c-0.838,0-1.518,0.68-1.518,1.518v7.723c0,0.838,0.68,1.518,1.518,1.518H67.78c0.838,0,1.518-0.68,1.518-1.518v-7.723
				c0-0.838-0.68-1.518-1.518-1.518H27.776z"/>
		</g>
		<g>
			<rect x="37.018" y="211.873" fill="#161616" width="5.38" height="21.521"/>
		</g>
		<g>
			<rect x="53.158" y="211.873" fill="#161616" width="5.38" height="21.521"/>
		</g>
		<g>
			<path fill="#161616" d="M73.16,260.294H33.156c-6.77,0-12.279-5.509-12.279-12.279v-7.723c0-6.77,5.509-12.279,12.279-12.279
				H73.16c6.77,0,12.279,5.509,12.279,12.279v7.723C85.439,254.785,79.93,260.294,73.16,260.294z M33.156,238.773
				c-0.838,0-1.518,0.68-1.518,1.518v7.723c0,0.838,0.68,1.518,1.518,1.518H73.16c0.838,0,1.518-0.68,1.518-1.518v-7.723
				c0-0.838-0.68-1.518-1.518-1.518H33.156z"/>
		</g>
		<g>
			<rect x="42.398" y="233.393" fill="#161616" width="5.38" height="21.52"/>
		</g>
		<g>
			<rect x="58.538" y="233.393" fill="#161616" width="5.38" height="21.52"/>
		</g>
		<g>
			<path fill="#161616" d="M67.78,281.814H27.776c-6.77,0-12.279-5.509-12.279-12.279v-7.723c0-6.77,5.509-12.279,12.279-12.279
				H67.78c6.77,0,12.279,5.509,12.279,12.279v7.723C80.059,276.305,74.55,281.814,67.78,281.814z M27.776,260.294
				c-0.838,0-1.518,0.68-1.518,1.518v7.723c0,0.838,0.68,1.518,1.518,1.518H67.78c0.838,0,1.518-0.68,1.518-1.518v-7.723
				c0-0.838-0.68-1.518-1.518-1.518H27.776z"/>
		</g>
		<g>
			<rect x="37.018" y="254.914" fill="#161616" width="5.38" height="21.52"/>
		</g>
		<g>
			<rect x="53.158" y="254.914" fill="#161616" width="5.38" height="21.52"/>
		</g>
		<g>
			<path fill="#161616" d="M176.901,281.814c-64.007,0-102.222-30.168-102.222-80.702c0-39.479,24.599-94.281,64.561-116.237V61.23
				c0-19.072-14.417-33.71-14.564-33.857c-1.71-1.71-2.07-4.35-0.877-6.455c1.193-2.104,3.651-3.147,5.984-2.569
				c41.391,10.348,93.952,0.047,94.483-0.055c2.564-0.515,5.044,0.846,6.026,3.215c0.982,2.375,0.152,5.112-1.986,6.536
				c-11.275,7.516-13.745,26.504-13.745,33.184v23.564c38.843,20.178,69.941,71.515,69.941,116.319
				c0,18.633-5.764,34.718-17.138,47.809c-1.949,2.251-5.354,2.477-7.592,0.533c-2.243-1.949-2.48-5.346-0.531-7.589
				c9.62-11.076,14.501-24.786,14.501-40.753c0-41.504-30.615-91.015-66.857-108.117c-1.881-0.888-3.084-2.782-3.084-4.865V61.23
				c0-0.899,0.116-16.844,7.597-30.027c-16.408,2.123-43.85,4.335-70.225,0.355C145.592,38.927,150,49.272,150,61.23V88.13
				c0,2.039-1.156,3.904-2.979,4.815c-38.036,18.972-61.582,70.919-61.582,108.167c0,63.127,63.962,69.941,91.462,69.941
				c26.822,0,50.013-5.627,67.062-16.274c2.517-1.581,5.837-0.804,7.413,1.713c1.571,2.522,0.804,5.84-1.718,7.413
				C230.901,275.622,205.74,281.814,176.901,281.814z"/>
		</g>
	</g>
</g>
</svg>
